<svg xmlns="http://www.w3.org/2000/svg" xmlns:xlink="http://www.w3.org/1999/xlink" width="500" zoomAndPan="magnify" viewBox="0 0 375 374.999991" height="500" preserveAspectRatio="xMidYMid meet" version="1.0"><defs><clipPath id="aa5fbe084f"><path d="M 222 174 L 293 174 L 293 338 L 222 338 Z M 222 174 " clip-rule="nonzero"/></clipPath><clipPath id="3a72ab0450"><path d="M 292.453125 244.539062 L 292.453125 333.261719 C 292.457031 333.691406 292.398438 334.113281 292.277344 334.523438 C 292.15625 334.933594 291.980469 335.320312 291.742188 335.679688 C 291.507812 336.035156 291.226562 336.351562 290.894531 336.625 C 290.566406 336.902344 290.203125 337.121094 289.808594 337.285156 C 289.414062 337.453125 289.003906 337.554688 288.578125 337.597656 C 288.152344 337.640625 287.726562 337.621094 287.308594 337.539062 C 286.886719 337.457031 286.488281 337.3125 286.113281 337.109375 C 285.734375 336.90625 285.394531 336.65625 285.09375 336.351562 L 222.394531 273.625 L 222.394531 174.445312 Z M 292.453125 244.539062 " clip-rule="nonzero"/></clipPath><linearGradient x1="349.846581" gradientTransform="matrix(1.027843, 0, 0, 1.029285, -46.551489, -71.874358)" y1="379.038677" x2="238.732352" gradientUnits="userSpaceOnUse" y2="260.868644" id="02f62bde09"><stop stop-opacity="1" stop-color="rgb(42.399597%, 38.398743%, 100%)" offset="0"/><stop stop-opacity="1" stop-color="rgb(42.399597%, 38.398743%, 100%)" offset="0.287871"/><stop stop-opacity="1" stop-color="rgb(42.399597%, 38.398743%, 100%)" offset="0.5"/><stop stop-opacity="1" stop-color="rgb(42.399597%, 38.398743%, 100%)" offset="0.712129"/><stop stop-opacity="1" stop-color="rgb(42.399597%, 38.398743%, 100%)" offset="0.75"/><stop stop-opacity="1" stop-color="rgb(42.398071%, 38.386536%, 100%)" offset="0.78125"/><stop stop-opacity="1" stop-color="rgb(42.388916%, 38.247681%, 100%)" offset="0.796875"/><stop stop-opacity="1" stop-color="rgb(42.370605%, 37.991333%, 100%)" offset="0.8125"/><stop stop-opacity="1" stop-color="rgb(42.352295%, 37.736511%, 100%)" offset="0.828125"/><stop stop-opacity="1" stop-color="rgb(42.333984%, 37.481689%, 100%)" offset="0.84375"/><stop stop-opacity="1" stop-color="rgb(42.315674%, 37.226868%, 100%)" offset="0.859375"/><stop stop-opacity="1" stop-color="rgb(42.297363%, 36.97052%, 100%)" offset="0.875"/><stop stop-opacity="1" stop-color="rgb(42.280579%, 36.715698%, 100%)" offset="0.890625"/><stop stop-opacity="1" stop-color="rgb(42.262268%, 36.460876%, 100%)" offset="0.90625"/><stop stop-opacity="1" stop-color="rgb(42.243958%, 36.204529%, 100%)" offset="0.921875"/><stop stop-opacity="1" stop-color="rgb(42.225647%, 35.949707%, 100%)" offset="0.9375"/><stop stop-opacity="1" stop-color="rgb(42.207336%, 35.694885%, 100%)" offset="0.953125"/><stop stop-opacity="1" stop-color="rgb(42.189026%, 35.438538%, 100%)" offset="0.96875"/><stop stop-opacity="1" stop-color="rgb(42.172241%, 35.183716%, 100%)" offset="0.984375"/><stop stop-opacity="1" stop-color="rgb(42.153931%, 34.928894%, 100%)" offset="1"/></linearGradient><clipPath id="b5dc64d9df"><path d="M 82 35 L 223 35 L 223 274 L 82 274 Z M 82 35 " clip-rule="nonzero"/></clipPath><clipPath id="480b27eda4"><path d="M 222.445312 174.445312 L 222.445312 273.585938 L 152.449219 203.46875 L 83.695312 134.632812 C 82.84375 133.777344 82.421875 132.75 82.433594 131.542969 L 82.433594 36.808594 C 82.457031 36.378906 82.667969 36.082031 83.0625 35.917969 C 83.460938 35.753906 83.816406 35.8125 84.140625 36.097656 L 152.449219 104.347656 Z M 222.445312 174.445312 " clip-rule="nonzero"/></clipPath><linearGradient x1="293.206436" gradientTransform="matrix(1.027843, 0, 0, 1.029285, -46.551489, -71.874358)" y1="263.145133" x2="94.157863" gradientUnits="userSpaceOnUse" y2="176.65361" id="56cfa47929"><stop stop-opacity="1" stop-color="rgb(29.399109%, 75.698853%, 100%)" offset="0"/><stop stop-opacity="1" stop-color="rgb(29.399109%, 75.698853%, 100%)" offset="0.125"/><stop stop-opacity="1" stop-color="rgb(29.522705%, 75.813293%, 99.969482%)" offset="0.1875"/><stop stop-opacity="1" stop-color="rgb(29.827881%, 76.094055%, 99.897766%)" offset="0.21875"/><stop stop-opacity="1" stop-color="rgb(30.189514%, 76.426697%, 99.812317%)" offset="0.25"/><stop stop-opacity="1" stop-color="rgb(30.551147%, 76.759338%, 99.728394%)" offset="0.28125"/><stop stop-opacity="1" stop-color="rgb(30.912781%, 77.09198%, 99.642944%)" offset="0.3125"/><stop stop-opacity="1" stop-color="rgb(31.274414%, 77.424622%, 99.557495%)" offset="0.34375"/><stop stop-opacity="1" stop-color="rgb(31.636047%, 77.757263%, 99.473572%)" offset="0.375"/><stop stop-opacity="1" stop-color="rgb(31.997681%, 78.089905%, 99.388123%)" offset="0.40625"/><stop stop-opacity="1" stop-color="rgb(32.359314%, 78.422546%, 99.302673%)" offset="0.424301"/><stop stop-opacity="1" stop-color="rgb(32.540894%, 78.588867%, 99.261475%)" offset="0.4375"/><stop stop-opacity="1" stop-color="rgb(32.720947%, 78.755188%, 99.21875%)" offset="0.46875"/><stop stop-opacity="1" stop-color="rgb(33.082581%, 79.08783%, 99.133301%)" offset="0.5"/><stop stop-opacity="1" stop-color="rgb(33.444214%, 79.418945%, 99.047852%)" offset="0.53125"/><stop stop-opacity="1" stop-color="rgb(33.805847%, 79.751587%, 98.963928%)" offset="0.5625"/><stop stop-opacity="1" stop-color="rgb(34.16748%, 80.084229%, 98.878479%)" offset="0.575699"/><stop stop-opacity="1" stop-color="rgb(34.34906%, 80.250549%, 98.835754%)" offset="0.59375"/><stop stop-opacity="1" stop-color="rgb(34.529114%, 80.41687%, 98.79303%)" offset="0.625"/><stop stop-opacity="1" stop-color="rgb(34.890747%, 80.749512%, 98.709106%)" offset="0.65625"/><stop stop-opacity="1" stop-color="rgb(35.25238%, 81.082153%, 98.623657%)" offset="0.6875"/><stop stop-opacity="1" stop-color="rgb(35.614014%, 81.414795%, 98.538208%)" offset="0.71875"/><stop stop-opacity="1" stop-color="rgb(35.975647%, 81.747437%, 98.454285%)" offset="0.75"/><stop stop-opacity="1" stop-color="rgb(36.33728%, 82.080078%, 98.368835%)" offset="0.78125"/><stop stop-opacity="1" stop-color="rgb(36.698914%, 82.41272%, 98.283386%)" offset="0.8125"/><stop stop-opacity="1" stop-color="rgb(37.060547%, 82.745361%, 98.199463%)" offset="0.84375"/><stop stop-opacity="1" stop-color="rgb(37.423706%, 83.078003%, 98.114014%)" offset="0.875"/><stop stop-opacity="1" stop-color="rgb(37.785339%, 83.410645%, 98.028564%)" offset="0.90625"/><stop stop-opacity="1" stop-color="rgb(38.146973%, 83.74176%, 97.944641%)" offset="0.9375"/><stop stop-opacity="1" stop-color="rgb(38.508606%, 84.074402%, 97.859192%)" offset="0.96875"/><stop stop-opacity="1" stop-color="rgb(38.870239%, 84.407043%, 97.773743%)" offset="1"/></linearGradient><clipPath id="ec2c717bf1"><path d="M 222 34 L 293 34 L 293 245 L 222 245 Z M 222 34 " clip-rule="nonzero"/></clipPath><clipPath id="b959e58997"><path d="M 292.453125 38.710938 L 292.453125 244.570312 L 222.445312 174.476562 L 222.445312 38.710938 C 222.445312 38.429688 222.472656 38.148438 222.53125 37.871094 C 222.585938 37.59375 222.667969 37.324219 222.777344 37.0625 C 222.886719 36.800781 223.019531 36.550781 223.175781 36.316406 C 223.332031 36.078125 223.511719 35.863281 223.714844 35.660156 C 223.914062 35.460938 224.132812 35.28125 224.367188 35.125 C 224.601562 34.96875 224.851562 34.835938 225.113281 34.726562 C 225.375 34.617188 225.644531 34.539062 225.921875 34.480469 C 226.199219 34.425781 226.480469 34.398438 226.761719 34.398438 L 288.144531 34.398438 C 288.425781 34.398438 288.707031 34.429688 288.984375 34.484375 C 289.261719 34.539062 289.53125 34.621094 289.792969 34.730469 C 290.050781 34.839844 290.300781 34.972656 290.535156 35.128906 C 290.769531 35.285156 290.988281 35.464844 291.1875 35.664062 C 291.386719 35.867188 291.566406 36.082031 291.722656 36.320312 C 291.878906 36.554688 292.011719 36.800781 292.121094 37.0625 C 292.230469 37.324219 292.3125 37.59375 292.367188 37.871094 C 292.421875 38.148438 292.449219 38.429688 292.453125 38.710938 Z M 292.453125 38.710938 " clip-rule="nonzero"/></clipPath><linearGradient x1="295.76999" gradientTransform="matrix(1.027843, 0, 0, 1.029285, -46.551489, -71.874358)" y1="103.250003" x2="295.76999" gradientUnits="userSpaceOnUse" y2="307.439991" id="1382b81d90"><stop stop-opacity="1" stop-color="rgb(53.379822%, 35.612488%, 100%)" offset="0"/><stop stop-opacity="1" stop-color="rgb(53.392029%, 35.748291%, 100%)" offset="0.015625"/><stop stop-opacity="1" stop-color="rgb(53.419495%, 36.018372%, 100%)" offset="0.03125"/><stop stop-opacity="1" stop-color="rgb(53.445435%, 36.289978%, 100%)" offset="0.046875"/><stop stop-opacity="1" stop-color="rgb(53.4729%, 36.561584%, 100%)" offset="0.0625"/><stop stop-opacity="1" stop-color="rgb(53.500366%, 36.831665%, 100%)" offset="0.078125"/><stop stop-opacity="1" stop-color="rgb(53.526306%, 37.103271%, 100%)" offset="0.09375"/><stop stop-opacity="1" stop-color="rgb(53.553772%, 37.374878%, 100%)" offset="0.109375"/><stop stop-opacity="1" stop-color="rgb(53.579712%, 37.646484%, 100%)" offset="0.125"/><stop stop-opacity="1" stop-color="rgb(53.607178%, 37.916565%, 100%)" offset="0.140625"/><stop stop-opacity="1" stop-color="rgb(53.633118%, 38.188171%, 100%)" offset="0.15625"/><stop stop-opacity="1" stop-color="rgb(53.660583%, 38.459778%, 100%)" offset="0.171875"/><stop stop-opacity="1" stop-color="rgb(53.686523%, 38.729858%, 100%)" offset="0.1875"/><stop stop-opacity="1" stop-color="rgb(53.713989%, 39.001465%, 100%)" offset="0.203125"/><stop stop-opacity="1" stop-color="rgb(53.741455%, 39.273071%, 100%)" offset="0.21875"/><stop stop-opacity="1" stop-color="rgb(53.767395%, 39.544678%, 100%)" offset="0.234375"/><stop stop-opacity="1" stop-color="rgb(53.794861%, 39.814758%, 100%)" offset="0.25"/><stop stop-opacity="1" stop-color="rgb(53.820801%, 40.086365%, 100%)" offset="0.265625"/><stop stop-opacity="1" stop-color="rgb(53.848267%, 40.357971%, 100%)" offset="0.28125"/><stop stop-opacity="1" stop-color="rgb(53.874207%, 40.628052%, 100%)" offset="0.296875"/><stop stop-opacity="1" stop-color="rgb(53.901672%, 40.899658%, 100%)" offset="0.3125"/><stop stop-opacity="1" stop-color="rgb(53.927612%, 41.171265%, 100%)" offset="0.328125"/><stop stop-opacity="1" stop-color="rgb(53.955078%, 41.442871%, 100%)" offset="0.34375"/><stop stop-opacity="1" stop-color="rgb(53.982544%, 41.712952%, 100%)" offset="0.359375"/><stop stop-opacity="1" stop-color="rgb(54.008484%, 41.984558%, 100%)" offset="0.375"/><stop stop-opacity="1" stop-color="rgb(54.03595%, 42.256165%, 100%)" offset="0.390625"/><stop stop-opacity="1" stop-color="rgb(54.06189%, 42.526245%, 100%)" offset="0.40625"/><stop stop-opacity="1" stop-color="rgb(54.089355%, 42.797852%, 100%)" offset="0.421875"/><stop stop-opacity="1" stop-color="rgb(54.115295%, 43.069458%, 100%)" offset="0.4375"/><stop stop-opacity="1" stop-color="rgb(54.142761%, 43.339539%, 100%)" offset="0.453125"/><stop stop-opacity="1" stop-color="rgb(54.168701%, 43.611145%, 100%)" offset="0.46875"/><stop stop-opacity="1" stop-color="rgb(54.196167%, 43.882751%, 100%)" offset="0.484375"/><stop stop-opacity="1" stop-color="rgb(54.222107%, 44.154358%, 100%)" offset="0.5"/><stop stop-opacity="1" stop-color="rgb(54.249573%, 44.424438%, 100%)" offset="0.515625"/><stop stop-opacity="1" stop-color="rgb(54.277039%, 44.696045%, 100%)" offset="0.53125"/><stop stop-opacity="1" stop-color="rgb(54.302979%, 44.967651%, 100%)" offset="0.546875"/><stop stop-opacity="1" stop-color="rgb(54.330444%, 45.237732%, 100%)" offset="0.5625"/><stop stop-opacity="1" stop-color="rgb(54.356384%, 45.509338%, 100%)" offset="0.578125"/><stop stop-opacity="1" stop-color="rgb(54.38385%, 45.780945%, 100%)" offset="0.59375"/><stop stop-opacity="1" stop-color="rgb(54.40979%, 46.052551%, 100%)" offset="0.609375"/><stop stop-opacity="1" stop-color="rgb(54.437256%, 46.322632%, 100%)" offset="0.625"/><stop stop-opacity="1" stop-color="rgb(54.463196%, 46.594238%, 100%)" offset="0.640625"/><stop stop-opacity="1" stop-color="rgb(54.490662%, 46.865845%, 100%)" offset="0.65625"/><stop stop-opacity="1" stop-color="rgb(54.518127%, 47.135925%, 100%)" offset="0.671875"/><stop stop-opacity="1" stop-color="rgb(54.544067%, 47.407532%, 100%)" offset="0.6875"/><stop stop-opacity="1" stop-color="rgb(54.571533%, 47.679138%, 100%)" offset="0.703125"/><stop stop-opacity="1" stop-color="rgb(54.597473%, 47.950745%, 100%)" offset="0.71875"/><stop stop-opacity="1" stop-color="rgb(54.624939%, 48.220825%, 100%)" offset="0.734375"/><stop stop-opacity="1" stop-color="rgb(54.650879%, 48.492432%, 100%)" offset="0.75"/><stop stop-opacity="1" stop-color="rgb(54.678345%, 48.764038%, 100%)" offset="0.765625"/><stop stop-opacity="1" stop-color="rgb(54.704285%, 49.034119%, 100%)" offset="0.78125"/><stop stop-opacity="1" stop-color="rgb(54.73175%, 49.305725%, 100%)" offset="0.796875"/><stop stop-opacity="1" stop-color="rgb(54.75769%, 49.577332%, 100%)" offset="0.8125"/><stop stop-opacity="1" stop-color="rgb(54.785156%, 49.848938%, 100%)" offset="0.828125"/><stop stop-opacity="1" stop-color="rgb(54.812622%, 50.119019%, 100%)" offset="0.84375"/><stop stop-opacity="1" stop-color="rgb(54.838562%, 50.390625%, 100%)" offset="0.859375"/><stop stop-opacity="1" stop-color="rgb(54.866028%, 50.662231%, 100%)" offset="0.875"/><stop stop-opacity="1" stop-color="rgb(54.888916%, 50.898743%, 100%)" offset="1"/></linearGradient><clipPath id="778c3ffc79"><path d="M 67.0625 9 L 307.8125 9 L 307.8125 366.910156 L 67.0625 366.910156 Z M 67.0625 9 " clip-rule="nonzero"/></clipPath><clipPath id="7a7859cac9"><path d="M 67.0625 271 L 163 271 L 163 366.910156 L 67.0625 366.910156 Z M 67.0625 271 " clip-rule="nonzero"/></clipPath><clipPath id="a2967a9be1"><path d="M 162.441406 319.285156 C 162.441406 320.847656 162.363281 322.402344 162.210938 323.957031 C 162.058594 325.511719 161.828125 327.054688 161.523438 328.585938 C 161.222656 330.117188 160.84375 331.628906 160.390625 333.125 C 159.9375 334.617188 159.414062 336.085938 158.816406 337.53125 C 158.21875 338.972656 157.554688 340.382812 156.816406 341.757812 C 156.082031 343.136719 155.28125 344.472656 154.417969 345.773438 C 153.550781 347.070312 152.621094 348.324219 151.632812 349.53125 C 150.644531 350.738281 149.597656 351.894531 148.496094 352.996094 C 147.394531 354.101562 146.238281 355.148438 145.035156 356.140625 C 143.828125 357.128906 142.578125 358.058594 141.28125 358.925781 C 139.984375 359.792969 138.648438 360.59375 137.273438 361.332031 C 135.898438 362.066406 134.488281 362.734375 133.050781 363.332031 C 131.609375 363.929688 130.140625 364.457031 128.652344 364.910156 C 127.160156 365.363281 125.648438 365.742188 124.117188 366.046875 C 122.589844 366.351562 121.046875 366.578125 119.496094 366.730469 C 117.945312 366.886719 116.390625 366.960938 114.832031 366.960938 C 113.269531 366.960938 111.714844 366.886719 110.164062 366.730469 C 108.613281 366.578125 107.070312 366.351562 105.542969 366.046875 C 104.011719 365.742188 102.5 365.363281 101.007812 364.910156 C 99.519531 364.457031 98.050781 363.929688 96.609375 363.332031 C 95.171875 362.734375 93.761719 362.066406 92.386719 361.332031 C 91.011719 360.59375 89.675781 359.792969 88.378906 358.925781 C 87.082031 358.058594 85.832031 357.128906 84.625 356.140625 C 83.421875 355.148438 82.265625 354.101562 81.164062 352.996094 C 80.0625 351.894531 79.015625 350.738281 78.027344 349.53125 C 77.039062 348.324219 76.109375 347.070312 75.242188 345.773438 C 74.378906 344.472656 73.578125 343.136719 72.84375 341.757812 C 72.105469 340.382812 71.441406 338.972656 70.84375 337.53125 C 70.246094 336.085938 69.722656 334.617188 69.269531 333.125 C 68.816406 331.628906 68.4375 330.117188 68.136719 328.585938 C 67.832031 327.054688 67.601562 325.511719 67.449219 323.957031 C 67.296875 322.402344 67.21875 320.847656 67.21875 319.285156 C 67.21875 317.722656 67.296875 316.164062 67.449219 314.613281 C 67.601562 313.058594 67.832031 311.515625 68.136719 309.984375 C 68.4375 308.453125 68.816406 306.9375 69.269531 305.445312 C 69.722656 303.949219 70.246094 302.480469 70.84375 301.039062 C 71.441406 299.597656 72.105469 298.1875 72.84375 296.808594 C 73.578125 295.433594 74.378906 294.09375 75.242188 292.796875 C 76.109375 291.5 77.039062 290.246094 78.027344 289.039062 C 79.015625 287.832031 80.0625 286.675781 81.164062 285.574219 C 82.265625 284.46875 83.421875 283.421875 84.625 282.429688 C 85.832031 281.441406 87.082031 280.511719 88.378906 279.644531 C 89.675781 278.777344 91.011719 277.972656 92.386719 277.238281 C 93.761719 276.5 95.171875 275.835938 96.609375 275.238281 C 98.050781 274.640625 99.519531 274.113281 101.007812 273.660156 C 102.5 273.207031 104.011719 272.828125 105.542969 272.523438 C 107.070312 272.21875 108.613281 271.992188 110.164062 271.839844 C 111.714844 271.683594 113.269531 271.609375 114.832031 271.609375 C 116.390625 271.609375 117.945312 271.683594 119.496094 271.839844 C 121.046875 271.992188 122.589844 272.21875 124.117188 272.523438 C 125.648438 272.828125 127.160156 273.207031 128.652344 273.660156 C 130.140625 274.113281 131.609375 274.640625 133.050781 275.238281 C 134.488281 275.835938 135.898438 276.5 137.273438 277.238281 C 138.648438 277.972656 139.984375 278.777344 141.28125 279.644531 C 142.578125 280.511719 143.828125 281.441406 145.035156 282.429688 C 146.238281 283.421875 147.394531 284.46875 148.496094 285.574219 C 149.597656 286.675781 150.644531 287.832031 151.632812 289.039062 C 152.621094 290.246094 153.550781 291.5 154.417969 292.796875 C 155.28125 294.09375 156.082031 295.433594 156.816406 296.808594 C 157.554688 298.1875 158.21875 299.597656 158.816406 301.039062 C 159.414062 302.484375 159.9375 303.949219 160.390625 305.445312 C 160.84375 306.9375 161.222656 308.453125 161.523438 309.984375 C 161.828125 311.515625 162.058594 313.058594 162.210938 314.613281 C 162.363281 316.164062 162.441406 317.722656 162.441406 319.285156 Z M 162.441406 319.285156 " clip-rule="nonzero"/></clipPath><linearGradient x1="121.685775" gradientTransform="matrix(1.027843, 0, 0, 1.029285, -46.551489, -71.874358)" y1="433.556599" x2="192.357939" gradientUnits="userSpaceOnUse" y2="326.469005" id="b5661282fa"><stop stop-opacity="1" stop-color="rgb(53.089905%, 32.675171%, 100%)" offset="0"/><stop stop-opacity="1" stop-color="rgb(53.102112%, 32.803345%, 100%)" offset="0.015625"/><stop stop-opacity="1" stop-color="rgb(53.126526%, 33.058167%, 100%)" offset="0.03125"/><stop stop-opacity="1" stop-color="rgb(53.152466%, 33.312988%, 100%)" offset="0.046875"/><stop stop-opacity="1" stop-color="rgb(53.17688%, 33.569336%, 100%)" offset="0.0625"/><stop stop-opacity="1" stop-color="rgb(53.20282%, 33.824158%, 100%)" offset="0.078125"/><stop stop-opacity="1" stop-color="rgb(53.227234%, 34.078979%, 100%)" offset="0.09375"/><stop stop-opacity="1" stop-color="rgb(53.253174%, 34.335327%, 100%)" offset="0.109375"/><stop stop-opacity="1" stop-color="rgb(53.277588%, 34.590149%, 100%)" offset="0.125"/><stop stop-opacity="1" stop-color="rgb(53.303528%, 34.844971%, 100%)" offset="0.140625"/><stop stop-opacity="1" stop-color="rgb(53.327942%, 35.101318%, 100%)" offset="0.15625"/><stop stop-opacity="1" stop-color="rgb(53.353882%, 35.35614%, 100%)" offset="0.171875"/><stop stop-opacity="1" stop-color="rgb(53.379822%, 35.610962%, 100%)" offset="0.1875"/><stop stop-opacity="1" stop-color="rgb(53.404236%, 35.86731%, 100%)" offset="0.203125"/><stop stop-opacity="1" stop-color="rgb(53.430176%, 36.122131%, 100%)" offset="0.21875"/><stop stop-opacity="1" stop-color="rgb(53.45459%, 36.376953%, 100%)" offset="0.234375"/><stop stop-opacity="1" stop-color="rgb(53.48053%, 36.633301%, 100%)" offset="0.25"/><stop stop-opacity="1" stop-color="rgb(53.504944%, 36.888123%, 100%)" offset="0.265625"/><stop stop-opacity="1" stop-color="rgb(53.530884%, 37.142944%, 100%)" offset="0.28125"/><stop stop-opacity="1" stop-color="rgb(53.555298%, 37.399292%, 100%)" offset="0.296875"/><stop stop-opacity="1" stop-color="rgb(53.581238%, 37.654114%, 100%)" offset="0.3125"/><stop stop-opacity="1" stop-color="rgb(53.605652%, 37.908936%, 100%)" offset="0.328125"/><stop stop-opacity="1" stop-color="rgb(53.631592%, 38.165283%, 100%)" offset="0.34375"/><stop stop-opacity="1" stop-color="rgb(53.656006%, 38.420105%, 100%)" offset="0.359375"/><stop stop-opacity="1" stop-color="rgb(53.681946%, 38.674927%, 100%)" offset="0.375"/><stop stop-opacity="1" stop-color="rgb(53.70636%, 38.931274%, 100%)" offset="0.390625"/><stop stop-opacity="1" stop-color="rgb(53.7323%, 39.186096%, 100%)" offset="0.397701"/><stop stop-opacity="1" stop-color="rgb(53.744507%, 39.31427%, 100%)" offset="0.40625"/><stop stop-opacity="1" stop-color="rgb(53.756714%, 39.440918%, 100%)" offset="0.421875"/><stop stop-opacity="1" stop-color="rgb(53.782654%, 39.697266%, 100%)" offset="0.4375"/><stop stop-opacity="1" stop-color="rgb(53.807068%, 39.952087%, 100%)" offset="0.453125"/><stop stop-opacity="1" stop-color="rgb(53.833008%, 40.206909%, 100%)" offset="0.46875"/><stop stop-opacity="1" stop-color="rgb(53.858948%, 40.463257%, 100%)" offset="0.484375"/><stop stop-opacity="1" stop-color="rgb(53.883362%, 40.718079%, 100%)" offset="0.5"/><stop stop-opacity="1" stop-color="rgb(53.909302%, 40.9729%, 100%)" offset="0.515625"/><stop stop-opacity="1" stop-color="rgb(53.933716%, 41.229248%, 100%)" offset="0.53125"/><stop stop-opacity="1" stop-color="rgb(53.959656%, 41.48407%, 100%)" offset="0.546875"/><stop stop-opacity="1" stop-color="rgb(53.98407%, 41.738892%, 100%)" offset="0.5625"/><stop stop-opacity="1" stop-color="rgb(54.01001%, 41.995239%, 100%)" offset="0.578125"/><stop stop-opacity="1" stop-color="rgb(54.034424%, 42.250061%, 100%)" offset="0.59375"/><stop stop-opacity="1" stop-color="rgb(54.060364%, 42.504883%, 100%)" offset="0.602299"/><stop stop-opacity="1" stop-color="rgb(54.072571%, 42.633057%, 100%)" offset="0.609375"/><stop stop-opacity="1" stop-color="rgb(54.084778%, 42.76123%, 100%)" offset="0.625"/><stop stop-opacity="1" stop-color="rgb(54.110718%, 43.016052%, 100%)" offset="0.640625"/><stop stop-opacity="1" stop-color="rgb(54.135132%, 43.270874%, 100%)" offset="0.65625"/><stop stop-opacity="1" stop-color="rgb(54.161072%, 43.527222%, 100%)" offset="0.671875"/><stop stop-opacity="1" stop-color="rgb(54.185486%, 43.782043%, 100%)" offset="0.6875"/><stop stop-opacity="1" stop-color="rgb(54.211426%, 44.036865%, 100%)" offset="0.703125"/><stop stop-opacity="1" stop-color="rgb(54.23584%, 44.293213%, 100%)" offset="0.71875"/><stop stop-opacity="1" stop-color="rgb(54.26178%, 44.548035%, 100%)" offset="0.734375"/><stop stop-opacity="1" stop-color="rgb(54.28772%, 44.802856%, 100%)" offset="0.75"/><stop stop-opacity="1" stop-color="rgb(54.312134%, 45.059204%, 100%)" offset="0.765625"/><stop stop-opacity="1" stop-color="rgb(54.338074%, 45.314026%, 100%)" offset="0.78125"/><stop stop-opacity="1" stop-color="rgb(54.362488%, 45.568848%, 100%)" offset="0.796875"/><stop stop-opacity="1" stop-color="rgb(54.388428%, 45.825195%, 100%)" offset="0.8125"/><stop stop-opacity="1" stop-color="rgb(54.412842%, 46.080017%, 100%)" offset="0.828125"/><stop stop-opacity="1" stop-color="rgb(54.438782%, 46.334839%, 100%)" offset="0.84375"/><stop stop-opacity="1" stop-color="rgb(54.463196%, 46.591187%, 100%)" offset="0.859375"/><stop stop-opacity="1" stop-color="rgb(54.489136%, 46.846008%, 100%)" offset="0.875"/><stop stop-opacity="1" stop-color="rgb(54.51355%, 47.10083%, 100%)" offset="0.890625"/><stop stop-opacity="1" stop-color="rgb(54.53949%, 47.357178%, 100%)" offset="0.90625"/><stop stop-opacity="1" stop-color="rgb(54.563904%, 47.612%, 100%)" offset="0.921875"/><stop stop-opacity="1" stop-color="rgb(54.589844%, 47.868347%, 100%)" offset="0.9375"/><stop stop-opacity="1" stop-color="rgb(54.614258%, 48.123169%, 100%)" offset="0.953125"/><stop stop-opacity="1" stop-color="rgb(54.640198%, 48.377991%, 100%)" offset="0.96875"/><stop stop-opacity="1" stop-color="rgb(54.664612%, 48.634338%, 100%)" offset="0.984375"/><stop stop-opacity="1" stop-color="rgb(54.690552%, 48.88916%, 100%)" offset="1"/></linearGradient></defs><g clip-path="url(#aa5fbe084f)"><g clip-path="url(#3a72ab0450)"><path fill="url(#02f62bde09)" d="M 222.394531 174.445312 L 222.394531 337.640625 L 292.457031 337.640625 L 292.457031 174.445312 Z M 222.394531 174.445312 " fill-rule="nonzero"/></g></g><g clip-path="url(#b5dc64d9df)"><g clip-path="url(#480b27eda4)"><path fill="url(#56cfa47929)" d="M 82.421875 35.753906 L 82.421875 273.585938 L 222.445312 273.585938 L 222.445312 35.753906 Z M 82.421875 35.753906 " fill-rule="nonzero"/></g></g><g clip-path="url(#ec2c717bf1)"><g clip-path="url(#b959e58997)"><path fill="url(#1382b81d90)" d="M 222.445312 34.398438 L 222.445312 244.570312 L 292.453125 244.570312 L 292.453125 34.398438 Z M 222.445312 34.398438 " fill-rule="nonzero"/></g></g><g clip-path="url(#778c3ffc79)"><path fill="#365b6d" d="M 298.054688 366.949219 C 296.792969 366.949219 295.585938 366.703125 294.425781 366.210938 C 293.265625 365.722656 292.246094 365.03125 291.363281 364.128906 L 71.117188 143.566406 C 69.867188 142.320312 68.902344 140.882812 68.226562 139.253906 C 67.550781 137.621094 67.214844 135.921875 67.21875 134.15625 L 67.21875 19.09375 C 67.207031 18.101562 67.34375 17.128906 67.625 16.175781 C 67.90625 15.222656 68.320312 14.332031 68.871094 13.507812 C 69.421875 12.679688 70.082031 11.953125 70.851562 11.324219 C 71.621094 10.699219 72.46875 10.199219 73.386719 9.832031 C 74.253906 9.492188 75.152344 9.285156 76.078125 9.214844 C 77.007812 9.144531 77.925781 9.207031 78.835938 9.410156 C 79.742188 9.609375 80.601562 9.941406 81.414062 10.398438 C 82.222656 10.855469 82.949219 11.421875 83.59375 12.09375 L 163.210938 93.574219 L 205.269531 135.648438 C 205.4375 135.835938 205.640625 135.953125 205.882812 136.007812 C 206.125 136.0625 206.363281 136.042969 206.59375 135.949219 C 206.824219 135.855469 207.003906 135.703125 207.140625 135.492188 C 207.273438 135.285156 207.335938 135.054688 207.324219 134.804688 L 207.324219 28.726562 C 207.324219 28.101562 207.386719 27.476562 207.507812 26.859375 C 207.632812 26.246094 207.8125 25.648438 208.054688 25.066406 C 208.292969 24.484375 208.589844 23.933594 208.9375 23.414062 C 209.285156 22.890625 209.683594 22.40625 210.125 21.964844 C 210.570312 21.519531 211.054688 21.121094 211.574219 20.773438 C 212.097656 20.425781 212.648438 20.128906 213.226562 19.890625 C 213.808594 19.652344 214.40625 19.46875 215.019531 19.347656 C 215.636719 19.226562 216.257812 19.164062 216.882812 19.164062 L 298.207031 19.164062 C 298.835938 19.164062 299.457031 19.226562 300.070312 19.351562 C 300.683594 19.472656 301.28125 19.652344 301.863281 19.894531 C 302.441406 20.132812 302.992188 20.429688 303.511719 20.777344 C 304.035156 21.125 304.515625 21.523438 304.960938 21.964844 C 305.402344 22.410156 305.796875 22.894531 306.148438 23.414062 C 306.496094 23.9375 306.789062 24.488281 307.027344 25.070312 C 307.269531 25.648438 307.449219 26.246094 307.574219 26.863281 C 307.695312 27.476562 307.757812 28.101562 307.757812 28.726562 L 307.757812 357.132812 C 307.765625 358.070312 307.644531 358.988281 307.390625 359.890625 C 307.136719 360.792969 306.757812 361.640625 306.261719 362.433594 C 305.761719 363.226562 305.160156 363.933594 304.460938 364.554688 C 303.757812 365.171875 302.980469 365.679688 302.132812 366.074219 C 300.839844 366.671875 299.476562 366.964844 298.054688 366.949219 Z M 76.789062 14.03125 C 76.0625 14.066406 75.378906 14.25 74.734375 14.585938 C 74.332031 14.785156 73.964844 15.039062 73.632812 15.339844 C 73.304688 15.644531 73.019531 15.988281 72.785156 16.371094 C 72.550781 16.753906 72.375 17.160156 72.253906 17.59375 C 72.136719 18.027344 72.078125 18.46875 72.082031 18.917969 L 72.082031 134.199219 C 72.078125 135.328125 72.289062 136.410156 72.71875 137.453125 C 73.148438 138.496094 73.761719 139.414062 74.558594 140.210938 L 294.753906 360.722656 C 295.070312 361.054688 295.429688 361.332031 295.832031 361.554688 C 296.230469 361.777344 296.652344 361.9375 297.101562 362.035156 C 297.546875 362.132812 298 362.164062 298.457031 362.125 C 298.914062 362.085938 299.355469 361.984375 299.78125 361.816406 C 300.242188 361.628906 300.664062 361.378906 301.050781 361.066406 C 301.433594 360.75 301.765625 360.386719 302.039062 359.972656 C 302.316406 359.558594 302.523438 359.113281 302.664062 358.636719 C 302.804688 358.15625 302.871094 357.671875 302.863281 357.171875 L 302.863281 28.726562 C 302.863281 28.414062 302.832031 28.105469 302.773438 27.800781 C 302.710938 27.492188 302.621094 27.195312 302.503906 26.90625 C 302.382812 26.621094 302.238281 26.34375 302.0625 26.085938 C 301.890625 25.828125 301.691406 25.585938 301.472656 25.367188 C 301.253906 25.144531 301.011719 24.949219 300.753906 24.773438 C 300.492188 24.601562 300.21875 24.453125 299.933594 24.335938 C 299.644531 24.214844 299.347656 24.125 299.042969 24.0625 C 298.734375 24.003906 298.425781 23.972656 298.113281 23.972656 L 216.792969 23.972656 C 216.480469 23.972656 216.171875 24.003906 215.867188 24.0625 C 215.558594 24.125 215.261719 24.214844 214.976562 24.335938 C 214.6875 24.453125 214.414062 24.601562 214.152344 24.773438 C 213.894531 24.949219 213.65625 25.144531 213.433594 25.367188 C 213.214844 25.585938 213.015625 25.828125 212.84375 26.085938 C 212.671875 26.34375 212.523438 26.621094 212.40625 26.90625 C 212.285156 27.195312 212.195312 27.492188 212.132812 27.800781 C 212.074219 28.105469 212.042969 28.414062 212.042969 28.726562 L 212.042969 146.417969 C 212.046875 146.664062 211.980469 146.886719 211.847656 147.09375 C 211.710938 147.300781 211.53125 147.449219 211.304688 147.542969 C 211.078125 147.636719 210.84375 147.65625 210.601562 147.605469 C 210.363281 147.554688 210.15625 147.4375 209.988281 147.261719 L 159.777344 96.980469 L 80.171875 15.480469 C 79.730469 15.015625 79.21875 14.65625 78.628906 14.402344 C 78.042969 14.152344 77.429688 14.027344 76.789062 14.03125 Z M 76.789062 14.03125 " fill-opacity="1" fill-rule="nonzero"/></g><g clip-path="url(#7a7859cac9)"><g clip-path="url(#a2967a9be1)"><path fill="url(#b5661282fa)" d="M 67.21875 271.609375 L 67.21875 366.910156 L 162.441406 366.910156 L 162.441406 271.609375 Z M 67.21875 271.609375 " fill-rule="nonzero"/></g></g></svg>