<?xml version="1.0" encoding="utf-8"?>
<!-- Generator: Adobe Illustrator 24.0.0, SVG Export Plug-In . SVG Version: 6.00 Build 0)  -->
<svg version="1.1" id="Layer_1" xmlns="http://www.w3.org/2000/svg" xmlns:xlink="http://www.w3.org/1999/xlink" x="0px" y="0px"
	 viewBox="0 0 500 500" style="enable-background:new 0 0 500 500;" xml:space="preserve">
<style type="text/css">
	.st0{fill:#8147E4;}
	.st1{fill:#FFFFFF;}
</style>
<g>
	<circle class="st0" cx="250.2" cy="250" r="250"/>
	<path class="st1" d="M267.5,289.5c0,10.6,0.2,19.5-0.1,28.4c-0.3,9.3,3.6,16.3,11.4,20.9c13.3,7.8,26.7,15.4,40.1,23
		c7.7,4.4,15.5,4,23.1-0.4c13.1-7.7,26.1-15.5,39.2-23c8.1-4.7,11.6-11.7,11.7-20.7c0.1-14.4,0-28.8,0-43.2
		c0-10.1-4.5-17.4-13.4-22.2c-11.7-6.4-23.3-12.9-34.7-19.8c-10.3-6.2-19.8-6-30.1,0.1c-42.6,24.9-85.6,49.2-128.2,74.3
		c-11.9,7-22.2,7.4-34.2,0c-22.3-13.7-45.2-26.3-68-39c-9.2-5.1-13.4-12.3-13.3-22.9c0.3-27.5,0.3-54.9,0-82.4
		c-0.1-10.7,4.4-17.8,13.4-22.8c23.9-13.4,47.7-27,71.5-40.7c9.3-5.3,18-5.3,27.3,0.2c23.6,14,47.4,27.6,71.1,41.3
		c7.9,4.6,12.2,11.1,11.9,20.5c-0.3,9.7,2.5,20.6-1.3,28.6c-3.6,7.7-15.1,10.2-23.2,15.1c-10.3,6.2-10.5,6.1-10.4-6.3
		c0.2-29.8,1.7-30.1-26.7-45.8c-7.6-4.2-15-8.5-22.5-12.8c-8.9-5.2-17.7-5.5-26.7-0.3c-12.4,7.2-24.8,14.4-37.4,21.5
		c-8.4,4.7-12.3,11.8-12.3,21.2c-0.1,14.4,0,28.8,0,43.2c0,9.8,4.4,16.9,12.8,21.8c12.2,7,24.5,14,36.6,21.2
		c9.8,5.9,18.9,5.5,28.7-0.3c43.3-25.4,86.8-50.3,130.1-75.7c10.9-6.4,20.6-6.7,31.5-0.2c23.1,13.8,46.5,27,70,40.2
		c9.5,5.3,13.7,12.8,13.6,23.6c-0.2,26.9-0.2,53.9,0,80.9c0.1,10.8-4.3,18.5-13.6,23.8c-23.9,13.5-47.8,27.1-71.5,40.8
		c-9.3,5.4-17.9,5.4-27.3-0.1c-23.7-13.9-47.5-27.4-71.5-40.8c-8.6-4.8-13.2-11.5-13.1-21.4c0.1-4.7,0.4-9.5-0.5-14.1
		c-2.2-11.8,3.2-18.3,13.4-22.8C252.6,298.8,259.3,294.2,267.5,289.5z"/>
</g>
</svg>
