<svg width="96" height="96" viewBox="0 0 96 96" fill="none" xmlns="http://www.w3.org/2000/svg">
<path d="M0 49.4967C0 48.4717 0 47.4467 0 46.4217C0.0960946 45.8131 0.0640631 45.1725 0.0640631 44.5639C0.0960946 42.0974 0.480473 39.663 1.02501 37.2286C1.63361 34.4739 2.49846 31.7833 3.61956 29.1887C4.6766 26.6903 5.95786 24.2559 7.43131 21.9816C8.68054 20.0277 10.0899 18.1699 11.6274 16.4082C12.5884 15.287 13.6134 14.198 14.7025 13.173C17.4892 10.5464 20.5002 8.24011 23.7994 6.35025C27.387 4.2682 31.2307 2.66662 35.2347 1.54552C37.7011 0.872859 40.1996 0.392386 42.7301 0.136134C43.3707 0.0720709 44.0113 0.0720709 44.6519 0.0400394C46.3816 -0.0240236 48.1754 0.00800788 49.9692 0.00800788C53.9091 0.00800788 57.7528 0.68067 61.5326 1.80177C64.031 2.5385 66.4334 3.46741 68.8037 4.58852C72.4873 6.35025 75.8827 8.56043 79.0218 11.187C80.303 12.2761 81.5523 13.3972 82.7054 14.6144C85.5562 17.6253 88.0226 20.9246 90.0406 24.5442C91.3539 26.9145 92.475 29.413 93.4039 31.9755C94.461 34.9544 95.1977 37.9974 95.6461 41.1365C95.8063 42.2896 95.9024 43.4748 95.9344 44.66C95.9665 46.1014 95.9985 47.5428 95.9985 48.9842C96.0305 52.7319 95.55 56.4155 94.6211 60.0351C93.9164 62.7257 93.0196 65.3203 91.8664 67.8508C90.7133 70.4133 89.3359 72.8477 87.7664 75.154C86.6773 76.7555 85.4601 78.2931 84.1788 79.7345C83.282 80.7595 82.321 81.7525 81.3601 82.7134C80.9757 83.0978 80.5593 83.4181 80.1749 83.8025C80.0468 83.9306 79.9187 83.9626 79.7585 83.9626C79.0858 84.0587 78.4132 84.0267 77.7405 84.0267C57.8489 84.0267 37.9574 84.0267 18.0658 84.0267C17.4892 84.0267 16.9126 84.0587 16.3361 83.9626C16.1439 83.9947 15.9837 83.8986 15.8556 83.7704C14.4783 82.5212 13.165 81.1759 11.9157 79.7985C10.3142 78.0048 8.87273 76.0829 7.55944 74.0649C5.57349 70.9899 3.97191 67.7547 2.72268 64.3273C1.66564 61.4124 0.928914 58.4015 0.448441 55.3585C0.256252 54.1093 0.192189 52.86 0.128126 51.5788C0.0320315 50.8741 0.0960946 50.2014 0 49.4967Z" fill="#00ADEC"/>
<path d="M23.3832 23.6153C23.3832 22.5582 23.3191 21.1488 23.6394 19.7715C23.7035 19.4832 23.7355 19.0668 24.1199 19.0027C24.4722 18.9707 24.6004 19.3551 24.7285 19.6113C25.3371 20.8606 25.6254 22.1739 25.9777 23.5192C27.3551 29.2528 28.9246 34.9544 31.0387 40.4639C32.2559 43.6029 33.6333 46.678 35.4911 49.5288C36.5161 51.0663 37.6372 52.5077 39.0466 53.7249C40.5841 55.0382 42.3138 55.9031 44.3958 55.9992C46.1255 56.0952 47.7271 55.6148 49.2967 54.9101C51.2826 53.9812 53.0764 52.7319 54.8381 51.4186C56.4077 50.2335 57.9452 48.9842 59.5468 47.8631C60.6999 47.0624 61.8851 46.2936 63.2624 45.9092C64.9921 45.3967 66.4015 45.8452 67.5546 47.2225C68.4195 48.2795 68.9961 49.5288 69.4125 50.81C70.6617 54.6538 71.4945 58.5617 71.3664 62.6297C71.2383 67.0821 69.957 71.1821 67.0101 74.6095C64.1913 77.8767 60.5718 79.7986 56.3116 80.3431C50.2576 81.1119 45.0044 79.222 40.3919 75.4103C36.8044 72.4313 34.2739 68.6836 32.4801 64.4234C30.6543 60.1312 29.277 55.6788 28.0277 51.1624C26.5222 45.8131 25.3371 40.3678 24.5043 34.8583C23.8957 31.2388 23.4793 27.6192 23.3832 23.6153Z" fill="#FEFEFE"/>
<path d="M79.7904 83.8666C78.2209 85.308 76.5232 86.5892 74.7614 87.8064C69.6684 91.2338 64.127 93.6041 58.1371 94.9174C56.1832 95.3338 54.2292 95.6221 52.2433 95.7823C50.5456 95.9104 48.88 96.0385 47.1823 95.9745C36.676 95.7182 27.2267 92.451 18.8344 86.1088C17.9055 85.4041 17.0086 84.6994 16.1758 83.8666C16.368 83.8666 16.5602 83.8666 16.7523 83.8666C37.5728 83.8666 58.4254 83.8666 79.2459 83.8666C79.406 83.8345 79.5982 83.8345 79.7904 83.8666Z" fill="#8BFECA"/>
</svg>
