<svg width="96" height="96" viewBox="0 0 96 96" fill="none" xmlns="http://www.w3.org/2000/svg">
<path d="M10.8152 17.6713C23.0576 2.50218 44.2586 -4.2436 64.0676 2.78771C84.5191 10.0689 96.9756 29.7351 95.9405 50.4008C94.7984 72.8153 78.3801 91.1253 57.0363 95.1228C35.2642 99.2274 16.0263 88.1986 6.9248 72.744C14.5986 72.3513 21.0231 69.2818 26.0914 63.5354C30.1603 58.8955 32.3732 53.4703 32.9085 47.3313C33.1941 43.9405 32.8729 40.5855 31.9806 37.3018C31.0526 34.0182 29.6249 30.9844 27.5904 28.2361C25.556 25.4878 23.129 23.1678 20.2379 21.3475C17.3469 19.5629 14.206 18.3137 10.8152 17.6713Z" fill="#13C087"/>
<path d="M0 47.6525C0.0713839 37.8729 3.14089 29.1641 9.17283 21.4903C9.35129 21.2762 9.49406 21.1691 9.81529 21.2405C18.9881 23.382 25.0914 28.9856 27.7327 37.9443C30.5523 47.5454 28.2323 56.0758 21.0583 63.1071C17.3463 66.7477 12.7777 68.7108 7.60239 69.2462C7.20978 69.2818 6.81716 69.2818 6.46024 69.3532C6.10333 69.3889 5.96056 69.2462 5.7821 68.9606C3.03382 64.2493 1.24922 59.2167 0.463995 53.8272C0.142768 51.7571 0 49.7227 0 47.6525Z" fill="#FE6600"/>
<path d="M37.4764 26.3801C37.6549 26.3801 37.7619 26.3444 37.8333 26.3444C45.1859 26.3444 52.5384 26.3087 59.891 26.3801C62.9605 26.4158 65.9586 26.9869 68.7426 28.3432C71.3838 29.6638 73.3825 31.5911 74.2034 34.5179C75.417 38.9794 73.9536 43.9049 69.3136 46.5461C69.2066 46.6175 69.0995 46.6888 68.9567 46.7602C69.3493 46.903 69.7419 47.0458 70.0989 47.1885C73.7037 48.7233 75.988 51.3288 76.5948 55.2549C77.1659 59.0026 76.4163 62.429 73.4539 65.0702C71.6693 66.6407 69.5278 67.533 67.2435 68.104C64.8521 68.7108 62.4251 68.9249 59.9623 68.9249C58.0707 68.9606 56.179 68.9249 54.2873 68.9249C48.8265 68.9249 43.3299 68.9249 37.869 68.9249C37.2266 68.9249 37.2266 68.9249 37.2266 68.2468C37.2266 64.1422 37.2266 60.0376 37.2266 55.9331C37.2266 55.5761 37.2979 55.4334 37.6906 55.4691C40.2247 55.5048 42.7231 55.5048 45.2573 55.4691C45.6499 55.4691 45.7213 55.5761 45.7213 55.9331C45.6856 57.6463 45.7213 59.3238 45.7213 61.037C45.7213 61.3582 45.7926 61.4296 46.1139 61.4296C50.504 61.4296 54.8584 61.4653 59.2485 61.4653C60.7476 61.4653 62.2109 61.3226 63.6029 60.7872C67.0293 59.538 67.993 55.0765 65.3875 52.6851C64.3168 51.7214 62.9962 51.3288 61.6042 51.1147C60.6405 50.9719 59.6768 50.9362 58.7131 50.9362C55.1082 50.9362 51.5033 50.9362 47.8985 50.9362C45.7569 50.9362 44.4363 49.6513 44.4363 47.5811C44.4363 45.4039 45.864 43.8335 47.9342 43.7978C51.1107 43.7621 54.2516 43.7621 57.4282 43.7621C58.8916 43.7621 60.355 43.5836 61.7469 43.0126C64.638 41.8704 65.1377 39.1578 64.4238 37.0163C63.9598 35.6243 62.8891 34.8391 61.5685 34.3394C60.1408 33.8041 58.606 33.697 57.107 33.697C54.0732 33.697 51.0394 33.7327 48.0055 33.7684C47.5772 33.7684 47.256 33.6613 46.8991 33.4114C43.9723 31.1628 41.0099 28.9143 38.0475 26.7014C37.8333 26.6657 37.6906 26.5586 37.4764 26.3801Z" fill="#FEFEFE"/>
</svg>
