<svg width="462" height="268" viewBox="0 0 462 268" fill="none" xmlns="http://www.w3.org/2000/svg">
<path fill-rule="evenodd" clip-rule="evenodd" d="M347.459 189.417C349.552 189.95 352.168 190.482 354.262 191.546C366.297 195.804 378.856 202.19 392.984 198.997C445.836 187.289 452.115 42.5289 391.415 8.4678C356.355 -11.756 275.246 10.5966 229.721 10.5966C201.987 10.5966 160.647 2.08133 124.541 0.48472C145.996 42.5289 177.392 104.797 187.858 125.553C201.987 97.346 216.115 69.1392 230.244 41.4645C255.885 41.4645 278.386 41.4645 304.027 41.4645C345.889 41.4645 351.122 123.424 305.596 123.424C300.364 123.424 296.701 123.424 291.991 123.424C298.27 131.407 324.434 162.275 347.459 189.417ZM93.6674 1.01692L175.823 164.404C184.195 164.404 192.044 164.404 200.417 164.404C216.115 133.004 231.814 101.071 247.512 69.6714C264.78 69.6714 283.095 69.6714 300.364 69.6714C311.876 69.6714 312.922 95.7494 300.364 95.7494C286.235 95.7494 271.06 95.7494 256.931 95.7494C253.268 102.668 250.129 109.587 246.466 116.505C254.838 125.553 282.572 158.55 307.166 187.289C250.652 187.289 182.102 186.756 126.634 186.756C118.785 186.756 111.459 188.885 103.086 192.079C91.5743 196.336 79.5388 201.658 65.4102 197.933C16.745 184.095 8.3725 43.0611 69.5964 8.4678C75.8758 4.74236 84.2483 2.61354 93.6674 1.01692ZM435.893 53.7052H443.743C453.162 53.7052 461.011 61.6883 461.011 71.268V127.15C461.011 136.729 453.162 144.712 443.743 144.712H441.126C444.266 128.214 445.313 111.183 443.743 94.685C442.696 81.9121 440.08 67.5426 435.893 53.7052ZM17.2683 53.7052C7.84922 53.7052 0 61.6883 0 71.268V127.15C0 136.729 7.84922 144.712 17.2683 144.712H20.408C17.2683 128.214 16.2217 110.651 17.2683 94.685C18.3148 81.3799 20.408 67.0103 25.1175 53.7052H17.2683V53.7052Z" fill="url(#paint0_linear_399_28)"/>
<path d="M135.971 237.982L130.633 242.869L128.479 240.715C128.479 240.715 126.389 238.046 124.138 239.525C121.887 241.004 125.649 243.513 125.649 243.513L132.595 249.558C132.595 249.558 138.737 254.478 135.585 261.745C132.434 269.012 119.025 270.716 114.588 259.751L120.633 255.764C120.633 255.764 122.434 259.655 125.521 260.394C128.608 261.134 129.862 257.597 128.286 255.957C126.71 254.349 119.765 248.336 119.765 248.336C119.765 248.336 115.36 245.345 116.26 238.914C117.16 232.483 128.318 227.306 135.971 237.982Z" fill="#E6E6E6"/>
<path d="M182.661 232.676H175.426L183.24 266.503H190.089L195.523 247.274L200.861 266.503H207.806L215.524 232.676H207.999L203.819 251.455L198.674 232.676H192.275L187.13 251.455L182.661 232.676Z" fill="#E6E6E6"/>
<path d="M273.469 232.676H266.138L252.986 266.503H260.993L263.565 259.751H275.752L278.325 266.503H286.428L273.469 232.676ZM266.234 252.516L269.707 243.737L273.083 252.516H266.234Z" fill="#E6E6E6"/>
<path d="M337.683 232.676H326.621V266.503H333.856L333.953 252.677H337.715C337.715 252.677 347.201 252.291 347.201 242.515C347.201 232.74 337.683 232.676 337.683 232.676ZM336.975 245.538H333.985V240.168H336.879C336.879 240.168 339.933 240.2 339.933 242.869C339.933 245.538 336.975 245.538 336.975 245.538Z" fill="#E6E6E6"/>
<defs>
<linearGradient id="paint0_linear_399_28" x1="443.562" y1="99.7425" x2="20.9679" y2="99.7364" gradientUnits="userSpaceOnUse">
<stop stop-color="#8F00FF"/>
<stop offset="1" stop-color="#FF3399"/>
</linearGradient>
</defs>
</svg>
