<svg width="96" height="97" viewBox="0 0 96 97" fill="none" xmlns="http://www.w3.org/2000/svg">
<path d="M49.4005 0C49.4967 0.0961723 49.6249 0.0641148 49.7211 0.0641148C51.6445 0.0961723 53.5359 0.320574 55.4273 0.609091C58.2483 1.02584 61.0053 1.7311 63.6981 2.66077C67.3526 3.91101 70.8148 5.61005 74.0526 7.72584C76.2325 9.13636 78.3163 10.7392 80.2397 12.5024C82.9646 14.9708 85.3689 17.7278 87.4847 20.7732C88.8632 22.7608 90.0813 24.8124 91.1392 26.9923C92.9665 30.7431 94.3129 34.6861 95.0823 38.7895C95.4029 40.4244 95.6273 42.0914 95.7876 43.7584C95.9479 45.5536 96.044 47.3488 95.9799 49.144C95.8837 52.3498 95.499 55.5235 94.7938 58.6651C94.0244 62.0311 92.9345 65.2689 91.4598 68.3785C89.8249 71.8727 87.8053 75.0785 85.401 78.0919C83.9263 79.9191 82.3235 81.6182 80.6244 83.2211C77.8354 85.8177 74.7579 88.0617 71.4239 89.9211C68.5388 91.5239 65.5254 92.8383 62.3517 93.8321C60.1077 94.5373 57.8316 95.0823 55.4914 95.4349C53.6 95.7235 51.7086 95.8837 49.7852 95.9799C48.1823 96.0761 46.6115 96.044 45.0407 95.9479C40.0077 95.6273 35.1029 94.5694 30.4225 92.7101C26.223 91.0431 22.312 88.8311 18.7215 86.0742C16.5416 84.4072 14.5541 82.5479 12.6947 80.5603C10.1301 77.7713 7.91818 74.7258 6.09091 71.4239C4.48804 68.5388 3.17368 65.4933 2.1799 62.3517C1.47464 60.1077 0.961723 57.8636 0.609091 55.5555C0.320574 53.6641 0.0961723 51.7407 0.0641148 49.8172C0.0641148 49.7211 0.0641148 49.6249 0 49.5608C0 48.567 0 47.5732 0 46.5474C0.0641148 46.4833 0.0320574 46.3871 0.0320574 46.323C0.0641148 40.2 1.5067 34.3976 3.91101 28.7876C5.70622 24.6201 8.07847 20.8053 10.9636 17.3431C13.7847 13.945 17.0225 10.9957 20.645 8.46316C22.6005 7.11675 24.6201 5.89857 26.7679 4.87273C31.288 2.66077 36.0005 1.18612 41.0014 0.448804C42.7646 0.192345 44.5278 0.0320574 46.323 0.0641148C46.4191 0.0641148 46.5153 0.0961723 46.5794 0.0320574C47.5091 0 48.4388 0 49.4005 0Z" fill="#98FEFE"/>
<path d="M5.033 51.8048C4.87271 50.4263 4.80859 49.0479 4.80859 47.6694C4.93682 39.3665 7.18084 31.6727 11.7009 24.6522C13.5603 21.767 15.7402 19.1062 18.2407 16.734C23.8507 11.4445 30.3584 7.85408 37.8598 6.05887C40.2 5.48183 42.6043 5.1292 45.0086 4.96891C46.8038 4.84068 48.599 4.80863 50.3622 4.93686C57.9277 5.38566 64.9483 7.62968 71.3277 11.7651C74.2129 13.6244 76.8416 15.8043 79.2139 18.3048C84.6316 24.0431 88.2541 30.7431 90.0172 38.4369C90.5301 40.6168 90.8187 42.7967 90.9789 45.0086C91.1072 46.7718 91.1072 48.5029 91.0431 50.2661C91.011 50.779 90.9469 51.2919 90.9148 51.8048C90.8187 52.6704 90.6584 53.5359 90.3057 54.3694C89.6966 55.812 88.5105 56.4531 86.9718 56.1326C85.7536 55.8761 84.6957 55.267 83.6699 54.6259C81.5861 53.3436 79.6627 51.8048 77.7392 50.2981C74.4053 47.7015 71.1033 45.0727 67.577 42.7326C67.032 42.3799 66.455 42.0593 65.9421 41.6426C65.8139 41.1938 65.7498 40.6809 65.5253 40.2641C64.6277 38.4369 62.6722 37.6034 60.7167 38.2125C60.4603 38.2766 60.2359 38.4369 59.9474 38.4369C59.178 38.2445 58.5048 37.8598 57.7675 37.6034C55.299 36.6737 52.7986 36.0326 50.1698 35.7761C46.8359 35.4555 43.5981 35.8723 40.3923 36.834C38.8215 37.3149 37.3148 37.8919 35.8402 38.533C35.6799 38.5971 35.4875 38.7574 35.2631 38.5971C35.2631 38.0842 35.8081 37.3469 36.3852 37.1225C37.3469 36.7378 38.3086 36.3211 39.2703 35.9364C45.3612 33.4359 51.4201 30.9354 57.511 28.467C58.633 28.0182 59.4986 27.345 60.1718 26.3512C61.0373 25.0369 61.0694 23.2737 60.1718 21.9593C59.3383 20.7412 58.2163 20.0038 56.6775 19.9718C56.2608 19.9718 55.8761 20.068 55.5234 20.2282C50.3301 22.344 45.1368 24.4919 39.9435 26.6077C36.8981 27.8579 33.8847 29.1082 30.8392 30.3584C28.3708 31.3842 25.9024 32.4101 23.4019 33.4038C23.1775 33.5 23.0493 33.6282 22.9852 33.9168C22.8249 34.9426 22.6646 35.9364 22.6325 36.9622C22.6325 37.2828 22.5684 37.6034 22.5684 37.9239C22.5043 40.6168 22.7287 43.2775 23.2096 45.9062C23.2416 46.0345 23.2737 46.1948 23.2096 46.323C22.6005 46.9 21.9273 47.3488 21.2541 47.8617C19.2344 49.4326 17.2469 51.0354 15.1952 52.5742C13.9129 53.5359 12.5985 54.4656 11.188 55.235C10.3866 55.6838 9.52103 56.0364 8.59137 56.1646C7.53347 56.3249 6.66792 55.9723 6.02678 55.1067C5.35357 54.1771 5.12917 53.1192 5.033 51.9972C5.06505 51.933 5.09711 51.8689 5.033 51.8048Z" fill="#00CBFE"/>
<path d="M5.0332 51.8048C5.22555 52.5742 5.32172 53.3756 5.64229 54.1129C6.05904 55.1067 6.63607 55.9081 7.79014 56.0684C8.62363 56.1966 9.42507 55.9081 10.1624 55.5875C11.7653 54.9143 13.1758 53.9206 14.5543 52.8947C17.4074 50.811 20.1002 48.567 22.9212 46.4512C22.9854 46.3871 23.0815 46.355 23.1456 46.323C23.37 46.4512 23.338 46.7076 23.37 46.9C23.9791 50.0416 24.9409 53.0871 26.127 56.0364C27.3452 59.0498 28.7878 61.967 30.5189 64.7239C32.0576 67.1603 33.7567 69.5005 35.7122 71.6163C37.0265 73.0588 38.437 74.3732 39.9758 75.5914C40.3605 75.8799 40.649 75.944 41.1299 75.7517C45.65 73.8603 50.2021 72.001 54.7222 70.1416C57.8638 68.8593 61.0055 67.577 64.1471 66.2627C67.2567 64.9804 70.3662 63.7301 73.4437 62.4158C74.694 61.8708 75.6557 61.0053 76.3289 59.7871C77.5471 57.511 76.3289 54.8823 73.7643 54.3053C72.6744 54.0488 71.5844 54.145 70.5586 54.5617C65.9102 56.4531 61.294 58.3765 56.6457 60.2679C53.6323 61.5182 50.5868 62.7364 47.5734 63.9866C47.1567 64.1469 46.804 64.1469 46.3873 63.9866C45.2973 63.5698 44.4318 62.8966 43.7265 61.999C42.5724 60.4923 41.9313 58.8253 41.9634 56.9019C41.9634 56.0684 42.2198 55.267 42.6686 54.5297C42.8289 54.2732 43.0212 54.1129 43.2777 53.9847C45.4897 53.055 47.7337 52.1574 49.9456 51.2277C54.1772 49.4966 58.4409 47.7335 62.6724 46.0024C63.6662 45.5856 64.4677 44.8804 65.1088 44.0148C65.5897 43.3737 65.8141 42.6364 65.8461 41.867C65.8461 41.7387 65.8461 41.6105 65.9423 41.5143C67.1925 42.2196 68.3466 43.0531 69.5327 43.8545C71.6485 45.3292 73.7002 46.9 75.7198 48.5029C77.483 49.8813 79.2461 51.2598 81.0734 52.6383C82.516 53.7282 84.0227 54.7861 85.6897 55.4914C86.4591 55.812 87.2605 56.1005 88.126 55.9402C89.1198 55.7799 89.6969 55.1067 90.0816 54.2411C90.4342 53.4718 90.6265 52.6703 90.7227 51.8368C90.7227 51.7727 90.7548 51.7086 90.7868 51.6765C90.7227 53.1191 90.4983 54.5297 90.2418 55.9081C89.6648 59.0177 88.7351 62.0631 87.4528 64.9804C86.0423 68.2502 84.2471 71.2957 82.0672 74.1167C80.7849 75.8158 79.3744 77.3866 77.8356 78.8612C75.0787 81.522 72.0012 83.7981 68.6351 85.6574C65.237 87.5488 61.6146 88.9273 57.8318 89.8249C56.0686 90.2416 54.3055 90.5301 52.5102 90.7225C50.2021 90.9789 47.8619 91.0431 45.5217 90.9148C40.104 90.6263 34.9107 89.3761 29.9418 87.1C26.6078 85.5612 23.4983 83.6378 20.6452 81.3297C18.0485 79.2139 15.7404 76.8416 13.6887 74.2129C10.5791 70.1737 8.23895 65.7177 6.70019 60.877C5.96287 58.5368 5.41789 56.1646 5.12938 53.7603C5.16143 53.1832 5.0332 52.51 5.0332 51.8048Z" fill="#608FDD"/>
<path d="M66.0063 41.6426C65.9742 43.9828 64.6599 45.4253 62.6403 46.2588C56.2288 48.9517 49.8173 51.5483 43.4058 54.177C43.1494 54.2732 42.957 54.4335 42.7967 54.6579C42.0915 55.7478 41.9632 56.966 42.1556 58.2163C42.4762 60.2038 43.3738 61.9029 44.9446 63.1852C45.169 63.3775 45.4575 63.5378 45.714 63.6981C46.4513 64.1148 47.1565 64.211 48.0221 63.8584C55.4274 60.7808 62.8326 57.7354 70.2379 54.6899C71.5843 54.145 72.9628 53.9526 74.3412 54.4976C76.6814 55.3952 77.579 57.9277 76.3288 60.0756C75.6556 61.2617 74.6298 62.1273 73.3795 62.6722C62.5441 67.1282 51.7408 71.5842 40.9053 76.0402C40.6168 76.1684 40.4245 76.1363 40.168 75.944C36.6738 73.2512 33.8527 69.9813 31.4163 66.3268C27.6015 60.5885 24.9408 54.3373 23.4341 47.6052C23.3379 47.1885 23.2417 46.7718 23.1776 46.355C23.0173 45.1689 22.7929 44.0148 22.6967 42.8287C22.4082 39.7832 22.4082 36.7698 22.9532 33.7564C22.9852 33.5 23.1776 33.4679 23.3379 33.4038C27.6656 31.6406 31.9613 29.8454 36.2891 28.0823C42.6044 25.4856 48.9197 22.921 55.203 20.2923C57.0302 19.5229 58.7613 20.1961 59.8192 21.3823C61.0374 22.7607 61.2939 24.6521 60.4283 26.1909C59.8513 27.2167 59.0498 28.0182 57.8958 28.467C50.8111 31.3521 43.7264 34.2694 36.6417 37.1545C35.9364 37.443 35.5838 37.988 35.2953 38.6292C35.2953 39.11 35.0709 39.5268 35.0068 40.0076C34.8465 41.6105 35.2632 43.0531 36.1929 44.3354C36.9302 45.3612 37.924 46.0344 39.1422 46.3871C39.591 46.5153 40.0398 46.5153 40.4886 46.3229C45.0087 44.4316 49.5288 42.6043 54.0489 40.745C55.812 40.0076 57.5752 39.3024 59.3384 38.565C59.5307 38.4689 59.7551 38.4048 59.9475 38.4048C60.8771 38.0521 61.8388 37.8277 62.8326 38.0521C64.5958 38.4048 65.7819 39.7512 66.0063 41.6426Z" fill="black"/>
<path d="M59.9795 38.3728C58.601 38.9498 57.2546 39.5268 55.8762 40.0718C50.6829 42.2196 45.4896 44.3354 40.3283 46.4833C40.0077 46.6115 39.7192 46.6436 39.3987 46.5474C36.9943 45.9383 35.5838 44.3354 35.0388 41.9632C34.7824 40.8412 34.8144 39.7192 35.3274 38.6292C35.9044 38.501 36.4173 38.2125 36.9623 37.9881C39.3666 36.9943 41.835 36.257 44.3996 35.8402C46.0666 35.5838 47.7336 35.5196 49.4006 35.6158C52.3498 35.8082 55.1709 36.4814 57.8958 37.5393C58.569 37.7957 59.2743 38.0842 59.9795 38.3728Z" fill="#608FDD"/>
</svg>
