<?xml version="1.0" standalone="no"?>
<!DOCTYPE svg PUBLIC "-//W3C//DTD SVG 20010904//EN"
 "http://www.w3.org/TR/2001/REC-SVG-20010904/DTD/svg10.dtd">
<svg version="1.0" xmlns="http://www.w3.org/2000/svg"
 width="900.000000pt" height="593.000000pt" viewBox="0 0 900.000000 593.000000"
 preserveAspectRatio="xMidYMid meet">

<g transform="translate(0.000000,593.000000) scale(0.100000,-0.100000)"
fill="#000000" stroke="none">
<path d="M3753 4635 c-78 -21 -130 -51 -191 -108 -90 -86 -142 -201 -142 -316
0 -45 106 -655 125 -721 3 -11 -23 -29 -88 -62 -138 -71 -237 -140 -338 -236
-102 -96 -159 -172 -214 -281 -64 -129 -75 -193 -75 -446 0 -296 20 -378 135
-550 209 -314 632 -538 1175 -622 145 -22 558 -25 695 -5 264 40 493 108 694
208 346 171 576 429 631 710 8 38 10 142 8 294 -3 233 -4 236 -34 322 -46 127
-112 227 -228 344 -107 107 -237 201 -378 270 -43 21 -78 44 -78 51 0 6 27
156 60 332 66 354 71 422 40 525 -79 253 -388 380 -629 256 -58 -29 -153 -121
-184 -177 -51 -96 -57 -141 -57 -468 l0 -300 -182 2 -183 2 -5 328 c-6 363 -5
359 -78 471 -97 149 -302 224 -479 177z m251 -159 c60 -29 103 -73 138 -139
23 -41 23 -49 26 -440 l3 -397 72 7 c93 10 445 10 519 0 l57 -7 3 392 c3 393
3 393 27 442 31 63 84 115 146 146 68 33 188 35 256 4 107 -50 179 -157 179
-268 0 -34 -32 -230 -70 -436 -39 -206 -70 -380 -70 -387 0 -7 6 -13 13 -13
23 0 207 -88 284 -136 180 -112 307 -242 377 -386 59 -121 69 -177 70 -408 1
-196 0 -208 -26 -283 -39 -115 -100 -211 -197 -308 -234 -235 -618 -394 -1059
-440 -169 -17 -505 -7 -662 21 -589 104 -1019 402 -1111 770 -21 81 -17 423 5
510 65 256 295 486 629 627 64 27 87 42 87 55 0 10 -31 187 -70 392 -38 206
-70 392 -70 413 0 128 89 249 214 289 63 21 164 12 230 -20z"/>
<path d="M3837 2892 c-131 -87 -143 -360 -20 -461 85 -70 173 -36 231 88 42
91 33 232 -21 312 -49 73 -131 99 -190 61z"/>
<path d="M5009 2887 c-114 -76 -134 -322 -36 -434 64 -73 141 -76 205 -10 112
116 89 386 -38 452 -42 22 -92 19 -131 -8z"/>
</g>
</svg>
